<svg id="Layer_1" data-name="Layer 1" xmlns="http://www.w3.org/2000/svg" viewBox="0 0 389.63 717.8">
    <path d="M488.56,885.16l-5.76,29.31,32.9,15.36,13.83-30.33Z" transform="translate(-405.64 -244.17)" style="fill-rule:evenodd"/>
    <path d="M502,962l17-39.26s-19.22-8.82-34.77-15.2c-24.35,3.62-61.2,1.53-73.4-1-3.28,8.24-5.13,13.88-5.13,13.88Z" transform="translate(-405.64 -244.17)" style="fill-rule:evenodd"/>
    <path d="M727.48,888.37l14.19,13.09L772.26,879l-10.82-14.27Z" transform="translate(-405.64 -244.17)" style="fill-rule:evenodd"/>
    <path d="M769.54,875.37l25.73,33.73-55.21,43.33H685.5l.12-14.32s38.68-7,38.56-6.89c8-9.53,14.5-32.51,14.5-32.51Z" transform="translate(-405.64 -244.17)" style="fill-rule:evenodd"/>
    <path d="M674.09,576.32S692,708.8,698.39,723.07s67.92,142.52,67.92,142.52L721.82,897.5S622.77,748.15,618.28,740.2c-2.9-5.13-10.63-35.61-10.63-35.61L531.37,912.28,480.82,889.2l53.07-307.52Z" transform="translate(-405.64 -244.17)" style="fill:#aadaf1;fill-rule:evenodd"/>
    <path d="M620.36,578.37l-39.75,1.52.29,9.58Zm-38.69,36.3L586.22,763l21.39-58.25Z" transform="translate(-405.64 -244.17)" style="fill:#73a9c3;fill-rule:evenodd"/>
    <path d="M607.69,704.73,577.9,600.89" transform="translate(-405.64 -244.17)" style="fill:none;stroke:#0097f7;stroke-linecap:round;stroke-linejoin:round;stroke-width:1.70292413234711px"/>
    <path d="M721.76,826.8,680.3,750.11c8.1-8.19,11.49-16.94-7.08-6.57-13.77,7.7-16.07,5.08-4-8.23,16.25-17.88,13.42-20.33-2.56-17.74" transform="translate(-405.64 -244.17)" style="fill:none;stroke:#0097f7;stroke-linecap:round;stroke-linejoin:round;stroke-width:1.70292413234711px"/>
    <path d="M670,711.14S656.68,617.5,652.78,606" transform="translate(-405.64 -244.17)" style="fill:none;stroke:#0097f7;stroke-linecap:round;stroke-linejoin:round;stroke-width:1.70292413234711px"/>
    <path d="M531.9,820.62c1.47-6.3,9.43-62.31,14.38-63.68,23.52-6.55,27.77-15.69,5.3-22.1-22.05-6.29-21.92-8.18-2.08-14.23,20.3-6.19,16.3-9.47,3.25-21.11-4.42-4,15.86-53.32,17-58.13" transform="translate(-405.64 -244.17)" style="fill:none;stroke:#0097f7;stroke-linecap:round;stroke-linejoin:round;stroke-width:1.70292413234711px"/>
    <path d="M617.11,344.33c51.62,0,93.74,26.15,94.15,65.78.25,24.87,4.83,42.75,4.83,42.75l-45.77,11.38S686.22,573.41,680.64,578c-16.6,13.68-133.06,18.26-147.51,3.38-1.27-18.42,9.93-67.5,9.93-67.5s-35.54-83.79-16.28-123.29C545,353.13,593,346.4,614.28,345.67,615.45,345.63,616.11,344.33,617.11,344.33Z" transform="translate(-405.64 -244.17)" style="fill:#0097f7;fill-rule:evenodd"/>
    <path d="M709.46,479.14c-.33-7.71.95-21.49-2.72-29.65s-26.26-4-26.26-4S709.8,486.84,709.46,479.14Z" transform="translate(-405.64 -244.17)" style="fill:#f77f89;fill-rule:evenodd"/>
    <g id="left_arm">
        <path d="M586.86,400.43l-8.52,32.68" transform="translate(-405.64 -244.17)" style="fill:none;stroke:#000;stroke-linecap:round;stroke-linejoin:round;stroke-width:3.40584826469421px"/>
        <path d="M694.77,502.7c-11.95,2.17-84-42.62-92.78-41.47s-31.31,1-31.31,1S556.59,416,583.89,413.53c1.69-.15,11.94,8,11.94,8s2.75-.9,4.73.55c3.62,2.64,15.46,14.71,21.27,16.52,9.77,3,88.71,15,92.64,20.83S723.43,497.49,694.77,502.7Z" transform="translate(-405.64 -244.17)" style="fill:#f77f89;fill-rule:evenodd"/>
    </g>
    <path d="M640.57,388.74c21.24-.42,63.36-3,67.59,15s8.25,48.86,5.93,53.09-45.57,9.6-45.57,9.6C665.1,457.76,646.22,408.94,640.57,388.74Z" transform="translate(-405.64 -244.17)" style="fill:#0097f7;fill-rule:evenodd"/>
    <path d="M546,405c-1,5.86-1.94,18.39.48,29.11" transform="translate(-405.64 -244.17)" style="fill:none;stroke:#aadaf1;stroke-linecap:round;stroke-linejoin:round;stroke-width:1.70292413234711px"/>
    <g id="right_arm">
        <path d="M506.44,413.16H560c6.18,0,13.2,4.59,15.69,10.24L613.37,509c2.49,5.66-.5,10.24-6.68,10.24H553.15c-6.18,0-13.21-4.58-15.7-10.24L499.77,423.4C497.28,417.75,500.27,413.16,506.44,413.16Z" transform="translate(-405.64 -244.17)" style="fill:#f7d167;fill-rule:evenodd"/>
        <path d="M505.13,482.74c-2.55-6.59-4.37-15.68-.79-21.5s17.36-23.73,23.07-24.07,20.37,15.56,21.94,20.71,1,16.35-1.46,21.16-12.34,14.19-17.31,14.37S506.68,486.75,505.13,482.74Z" transform="translate(-405.64 -244.17)" style="fill:#f77f89;fill-rule:evenodd"/>
        <path d="M505.72,471.59c-.69-10.62-5.32-22.13-8.46-29.92-2.1-5.2-.55-9.65,3-10.66s14.56,13.52,14.88,24.74S506.42,482.21,505.72,471.59Z" transform="translate(-405.64 -244.17)" style="fill:#f77f89;fill-rule:evenodd"/>
        <path d="M505.06,466.17a60.11,60.11,0,0,1,10.07-15.41" transform="translate(-405.64 -244.17)" style="fill:none;stroke:#81666f;stroke-linecap:round;stroke-linejoin:round;stroke-width:1.70292413234711px"/>
        <path d="M519.26,467.9c0-5.71,11.64-22.36,16-24.41" transform="translate(-405.64 -244.17)" style="fill:none;stroke:#905f6f;stroke-linecap:round;stroke-linejoin:round;stroke-width:1.70292413234711px"/>
        <path d="M530.69,474.61c.13-2.77,9.19-17.85,14.38-20.86" transform="translate(-405.64 -244.17)" style="fill:none;stroke:#8b5d6c;stroke-linecap:round;stroke-linejoin:round;stroke-width:1.70292413234711px"/>
    </g>
    <path d="M613.33,429.37l33.75.68" transform="translate(-405.64 -244.17)" style="fill:none;stroke:#aadaf1;stroke-linecap:round;stroke-linejoin:round;stroke-width:1.70292413234711px"/>
    <path d="M594.32,351.39c-.49,4.95-6.35,36.89,13.37,36.89,12.69,0,32.39-29.53,29.27-38.32" transform="translate(-405.64 -244.17)" style="fill:#f77f89;stroke:#aadaf1;stroke-linecap:round;stroke-linejoin:round;stroke-width:1.70292413234711px;fill-rule:evenodd"/>
    <path d="M662.67,451.3c-5.65-14.81-13.76-36.55-18.88-52.13" transform="translate(-405.64 -244.17)" style="fill:none;stroke:#aadaf1;stroke-linecap:round;stroke-linejoin:round;stroke-width:1.70292413234711px"/>
    <g id="head">
        <path d="M645.7,286.14c.3-17.69-17.77-42-43.79-42-20.39,0-41.22,9.7-41.75,25.48-1.06-6.52-2.07-10.54-1.33-14.15-4.4-.21-13.25,11.13-13.25,26.29,0,5.87,4.57,28,17.57,27.74S625.76,327,625.76,327s3.25,4.77,7.66,4.41,12.73-8.6,12.8-13.16-4.05-12.72-4-15.25S645.39,303.83,645.7,286.14Z" transform="translate(-405.64 -244.17)" style="fill:#6a3416;fill-rule:evenodd"/>
        <path d="M557.56,308.88a38.7,38.7,0,1,1,38.69,38.69A38.69,38.69,0,0,1,557.56,308.88Z" transform="translate(-405.64 -244.17)" style="fill:#f77f89;fill-rule:evenodd"/>
        <path d="M555.7,294.19s5.2-1.05,12.85-12.32c9.54,1.8,25.24,1.71,38.62-2.32.17,8.06,6.09,21.27,14.24,19.81s11.49-21.1,11.49-21.1l-19.21-20.07-29.08.17-20.42,14.41Z" transform="translate(-405.64 -244.17)" style="fill:#6a3416;fill-rule:evenodd"/>
        <path d="M567.25,304.28c-.36-3.08.61-5.73,2.16-5.91s3.11,2.17,3.47,5.26-.61,5.72-2.17,5.9S567.61,307.36,567.25,304.28Z" transform="translate(-405.64 -244.17)" style="fill:#90415b;fill-rule:evenodd"/>
        <path d="M635.32,316.93c-1,6.16-3,35.41.17,41.62-7.07,7.13-27.8,10.19-38.66,7.1.85-8.43-2.65-16.69-4.52-20.06S636.29,310.78,635.32,316.93Z" transform="translate(-405.64 -244.17)" style="fill:#f77f89;fill-rule:evenodd"/>
        <path d="M593.09,299.54c-.36-3.08.61-5.73,2.16-5.91s3.11,2.17,3.46,5.25-.6,5.73-2.16,5.91S593.45,302.62,593.09,299.54Z" transform="translate(-405.64 -244.17)" style="fill:#90415b;fill-rule:evenodd"/>
        <path d="M580.21,305.31c.31,3.65-2.61,17.4-3.23,19.54s2.71,2.92,2.71,2.92" transform="translate(-405.64 -244.17)" style="fill:none;stroke:#90415b;stroke-linecap:round;stroke-linejoin:round;stroke-width:1.70292413234711px"/>
        <path d="M559.5,321c.2,3.87,9.34,23.83,14.73,26.9s46,2.68,55.33-17.43c-7.66-1.18-12.85-7.68-18.91-21.6-13.54,2-28.89,0-31.36.14C576.58,309.17,570.06,318.13,559.5,321Z" transform="translate(-405.64 -244.17)" style="fill:#fff;fill-rule:evenodd"/>
        <path d="M616.53,304.52a14.74,14.74,0,1,1,14.74,14.74A14.74,14.74,0,0,1,616.53,304.52Z" transform="translate(-405.64 -244.17)" style="fill:#f77f89;fill-rule:evenodd"/>
        <path d="M610.8,309.2s9.31-17.07,19.17-19.36" transform="translate(-405.64 -244.17)" style="fill:none;stroke:#fff;stroke-linecap:round;stroke-linejoin:round;stroke-width:1.70292413234711px"/>
        <path d="M629.5,330.6l7.22-12.38" transform="translate(-405.64 -244.17)" style="fill:none;stroke:#fff;stroke-linecap:round;stroke-linejoin:round;stroke-width:1.70292413234711px"/>
        <path d="M560.63,325.1c2.64,7.21,9.31,20.37,13.6,22.81,1.71,1,7,1.61,13.74,1.35" transform="translate(-405.64 -244.17)" style="fill:none;stroke:#c9c9c9;stroke-linecap:round;stroke-linejoin:round;stroke-width:3.40584826469421px"/>
    </g>
    <path d="M505.16,954.62,408.29,913" transform="translate(-405.64 -244.17)" style="fill:none;stroke:#7c7c7c;stroke-linecap:round;stroke-linejoin:round;stroke-width:1.70292413234711px"/>
    <path d="M685.55,946.27l51.75-1.8,53.07-41.8" transform="translate(-405.64 -244.17)" style="fill:none;stroke:#7c7c7c;stroke-linecap:round;stroke-linejoin:round;stroke-width:1.70292413234711px"/>
</svg>
